<?xml version="1.0" standalone="no"?>
<!DOCTYPE svg PUBLIC "-//W3C//DTD SVG 20010904//EN"
 "http://www.w3.org/TR/2001/REC-SVG-20010904/DTD/svg10.dtd">
<svg version="1.0" xmlns="http://www.w3.org/2000/svg"
 width="850.000000pt" height="850.000000pt" viewBox="0 0 850.000000 850.000000"
 preserveAspectRatio="xMidYMid meet">
<metadata>
Created by potrace 1.14, written by Peter Selinger 2001-2017
</metadata>
<g transform="translate(0.000000,850.000000) scale(0.100000,-0.100000)"
fill="#000000" stroke="none">
<path d="M3960 8259 c-221 -19 -389 -43 -580 -85 -1569 -345 -2796 -1620
-3084 -3204 -184 -1009 23 -2040 581 -2903 l70 -109 65 94 c35 51 115 168 177
260 l113 167 -40 68 c-219 376 -365 817 -428 1288 -22 164 -26 618 -6 775 62
496 201 932 423 1323 761 1337 2285 2010 3777 1666 l93 -22 117 122 c143 149
153 152 238 66 l55 -55 -2 -125 c-3 -145 -5 -140 91 -180 275 -114 604 -322
865 -546 99 -85 319 -307 406 -409 260 -305 482 -699 616 -1095 116 -342 169
-643 180 -1020 13 -444 -60 -882 -213 -1288 -51 -135 -183 -414 -239 -506
l-36 -59 177 -261 177 -261 39 57 c22 32 78 123 125 203 511 857 676 1907 457
2900 -53 240 -130 476 -236 724 -496 1161 -1557 2045 -2793 2325 -382 87 -828
121 -1185 90z"/>
<path d="M5218 7452 c-169 -175 -311 -345 -435 -522 -397 -565 -630 -1218
-585 -1634 43 -391 307 -680 643 -703 366 -25 637 272 763 839 76 340 84 611
26 898 -24 117 -106 428 -162 610 -76 251 -80 266 -77 385 4 265 4 278 -7 282
-6 2 -81 -68 -166 -155z"/>
<path d="M3000 6774 c-6 -14 -10 -62 -10 -107 0 -162 -26 -312 -100 -572 -88
-313 -115 -490 -107 -710 8 -221 58 -386 169 -557 256 -393 655 -501 896 -243
97 104 134 204 134 370 0 253 -124 677 -284 975 -143 267 -383 599 -576 800
-74 77 -105 89 -122 44z"/>
<path d="M6601 5776 c-6 -7 -31 -74 -55 -147 -122 -374 -292 -640 -654 -1021
-231 -243 -294 -356 -294 -523 0 -65 4 -91 25 -138 50 -111 171 -207 297 -236
274 -63 626 130 771 424 117 238 125 498 34 1133 -24 174 -51 362 -58 417 -11
88 -15 100 -33 103 -11 2 -26 -4 -33 -12z"/>
<path d="M1856 5477 c-3 -12 -11 -96 -16 -187 -19 -321 -31 -467 -52 -645 -26
-210 -30 -509 -10 -620 21 -113 68 -255 109 -323 l37 -62 490 2 491 3 -1 100
c0 85 -4 110 -26 163 -47 110 -118 202 -308 397 -321 330 -455 541 -583 921
-53 154 -97 256 -116 268 -5 3 -12 -4 -15 -17z"/>
<path d="M4043 4180 c-305 -39 -538 -185 -642 -403 -21 -45 -42 -94 -45 -109
l-6 -28 1015 0 c558 0 1015 3 1015 6 0 3 -15 34 -32 68 -46 87 -191 228 -292
285 -187 106 -489 176 -801 185 -77 3 -172 1 -212 -4z"/>
<path d="M1770 2740 l0 -710 403 0 c444 0 485 4 608 61 122 56 186 149 196
283 7 89 -14 170 -62 242 -39 57 -74 85 -145 118 l-49 23 48 31 c52 34 87 79
123 157 18 40 22 68 23 140 0 80 -3 97 -31 156 -41 86 -92 142 -162 176 l-57
28 -447 3 -448 3 0 -711z m692 370 c49 -14 68 -43 68 -103 0 -40 -5 -53 -29
-78 l-29 -29 -156 0 -156 0 0 103 c0 57 3 107 7 110 10 11 254 8 295 -3z m69
-530 c44 -24 63 -114 35 -169 -24 -45 -52 -51 -236 -51 l-170 0 0 115 0 115
176 0 c101 0 183 -4 195 -10z"/>
<path d="M3156 3043 c113 -225 222 -436 240 -470 l34 -61 0 -241 0 -241 195 0
195 0 0 232 0 232 219 425 c120 234 231 450 245 479 l26 52 -212 0 -213 0
-123 -293 c-68 -161 -127 -298 -131 -305 -4 -6 -62 123 -132 291 l-124 302
-213 3 -213 2 207 -407z"/>
<path d="M4410 2740 l0 -710 400 0 c325 0 416 3 478 16 156 31 251 94 303 199
30 62 31 68 27 167 -3 77 -9 115 -25 150 -30 67 -96 134 -164 166 l-59 28 45
32 c193 136 196 451 6 595 -86 66 -94 67 -578 67 l-433 0 0 -710z m733 352
c50 -47 42 -148 -13 -177 -22 -11 -65 -15 -175 -15 l-145 0 0 111 0 110 154
-3 c146 -3 156 -4 179 -26z m50 -532 c49 -57 47 -132 -5 -175 -29 -25 -32 -25
-204 -25 l-174 0 0 115 0 115 179 0 179 0 25 -30z"/>
<path d="M5790 2740 l0 -710 510 0 510 0 0 170 0 170 -310 0 -310 0 0 110 0
110 255 0 255 0 0 160 0 160 -255 0 -255 0 0 100 0 100 300 0 300 0 0 170 0
170 -500 0 -500 0 0 -710z"/>
<path d="M1071 1793 c470 -601 1069 -1042 1778 -1309 610 -230 1273 -305 1935
-218 1018 132 1979 681 2620 1494 l74 95 -376 3 -376 2 -81 -78 c-525 -514
-1202 -840 -1965 -948 -177 -25 -671 -26 -850 -1 -723 101 -1326 374 -1860
843 -58 51 -125 113 -150 138 l-44 46 -379 0 -379 0 53 -67z"/>
<path d="M2835 1846 c155 -67 425 -68 576 -2 31 13 4 14 -286 15 -271 0 -315
-2 -290 -13z"/>
<path d="M4837 1794 c84 -96 176 -169 272 -217 l84 -42 126 0 c116 0 131 2
196 29 130 54 286 171 356 269 l20 27 -556 0 -556 0 58 -66z"/>
</g>
</svg>
